<?xml version="1.0" encoding="utf-8" standalone="no"?>
<!DOCTYPE svg PUBLIC "-//W3C//DTD SVG 1.1//EN"
  "http://www.w3.org/Graphics/SVG/1.1/DTD/svg11.dtd">
<svg xmlns:xlink="http://www.w3.org/1999/xlink" width="360pt" height="576pt" viewBox="0 0 360 576" xmlns="http://www.w3.org/2000/svg" version="1.1">
 <metadata>
  <rdf:RDF xmlns:dc="http://purl.org/dc/elements/1.1/" xmlns:cc="http://creativecommons.org/ns#" xmlns:rdf="http://www.w3.org/1999/02/22-rdf-syntax-ns#">
   <cc:Work>
    <dc:type rdf:resource="http://purl.org/dc/dcmitype/StillImage"/>
    <dc:date>2024-07-09T13:45:32.606920</dc:date>
    <dc:format>image/svg+xml</dc:format>
    <dc:creator>
     <cc:Agent>
      <dc:title>Matplotlib v3.8.0, https://matplotlib.org/</dc:title>
     </cc:Agent>
    </dc:creator>
   </cc:Work>
  </rdf:RDF>
 </metadata>
 <defs>
  <style type="text/css">*{stroke-linejoin: round; stroke-linecap: butt}</style>
 </defs>
 <g id="figure_1">
  <g id="patch_1">
   <path d="M 0 576 
L 360 576 
L 360 0 
L 0 0 
z
" style="fill: #ffffff"/>
  </g>
  <g id="axes_1">
   <g id="patch_2">
    <path d="M 45 216.96 
L 324 216.96 
L 324 69.12 
L 45 69.12 
z
" style="fill: #ffffff"/>
   </g>
   <g id="matplotlib.axis_1">
    <g id="xtick_1">
     <g id="line2d_1">
      <defs>
       <path id="ma32c7163d3" d="M 0 0 
L 0 3.5 
" style="stroke: #000000; stroke-width: 0.8"/>
      </defs>
      <g>
       <use xlink:href="#ma32c7163d3" x="55.243009" y="216.96" style="stroke: #000000; stroke-width: 0.8"/>
      </g>
     </g>
    </g>
    <g id="xtick_2">
     <g id="line2d_2">
      <g>
       <use xlink:href="#ma32c7163d3" x="119.261803" y="216.96" style="stroke: #000000; stroke-width: 0.8"/>
      </g>
     </g>
    </g>
    <g id="xtick_3">
     <g id="line2d_3">
      <g>
       <use xlink:href="#ma32c7163d3" x="183.280596" y="216.96" style="stroke: #000000; stroke-width: 0.8"/>
      </g>
     </g>
    </g>
    <g id="xtick_4">
     <g id="line2d_4">
      <g>
       <use xlink:href="#ma32c7163d3" x="247.299389" y="216.96" style="stroke: #000000; stroke-width: 0.8"/>
      </g>
     </g>
    </g>
    <g id="xtick_5">
     <g id="line2d_5">
      <g>
       <use xlink:href="#ma32c7163d3" x="311.318182" y="216.96" style="stroke: #000000; stroke-width: 0.8"/>
      </g>
     </g>
    </g>
   </g>
   <g id="matplotlib.axis_2">
    <g id="ytick_1">
     <g id="line2d_6">
      <defs>
       <path id="m06e32c56ec" d="M 0 0 
L -3.5 0 
" style="stroke: #000000; stroke-width: 0.8"/>
      </defs>
      <g>
       <use xlink:href="#m06e32c56ec" x="45" y="210.24" style="stroke: #000000; stroke-width: 0.8"/>
      </g>
     </g>
     <g id="text_1">
      <!-- 0 -->
      <g transform="translate(27.82 216.31875) scale(0.16 -0.16)">
       <defs>
        <path id="DejaVuSans-30" d="M 2034 4250 
Q 1547 4250 1301 3770 
Q 1056 3291 1056 2328 
Q 1056 1369 1301 889 
Q 1547 409 2034 409 
Q 2525 409 2770 889 
Q 3016 1369 3016 2328 
Q 3016 3291 2770 3770 
Q 2525 4250 2034 4250 
z
M 2034 4750 
Q 2819 4750 3233 4129 
Q 3647 3509 3647 2328 
Q 3647 1150 3233 529 
Q 2819 -91 2034 -91 
Q 1250 -91 836 529 
Q 422 1150 422 2328 
Q 422 3509 836 4129 
Q 1250 4750 2034 4750 
z
" transform="scale(0.015625)"/>
       </defs>
       <use xlink:href="#DejaVuSans-30"/>
      </g>
     </g>
    </g>
    <g id="ytick_2">
     <g id="line2d_7">
      <g>
       <use xlink:href="#m06e32c56ec" x="45" y="153.194625" style="stroke: #000000; stroke-width: 0.8"/>
      </g>
     </g>
     <g id="text_2">
      <!-- 50 -->
      <g transform="translate(17.64 159.273375) scale(0.16 -0.16)">
       <defs>
        <path id="DejaVuSans-35" d="M 691 4666 
L 3169 4666 
L 3169 4134 
L 1269 4134 
L 1269 2991 
Q 1406 3038 1543 3061 
Q 1681 3084 1819 3084 
Q 2600 3084 3056 2656 
Q 3513 2228 3513 1497 
Q 3513 744 3044 326 
Q 2575 -91 1722 -91 
Q 1428 -91 1123 -41 
Q 819 9 494 109 
L 494 744 
Q 775 591 1075 516 
Q 1375 441 1709 441 
Q 2250 441 2565 725 
Q 2881 1009 2881 1497 
Q 2881 1984 2565 2268 
Q 2250 2553 1709 2553 
Q 1456 2553 1204 2497 
Q 953 2441 691 2322 
L 691 4666 
z
" transform="scale(0.015625)"/>
       </defs>
       <use xlink:href="#DejaVuSans-35"/>
       <use xlink:href="#DejaVuSans-30" x="63.623047"/>
      </g>
     </g>
    </g>
    <g id="ytick_3">
     <g id="line2d_8">
      <g>
       <use xlink:href="#m06e32c56ec" x="45" y="96.149251" style="stroke: #000000; stroke-width: 0.8"/>
      </g>
     </g>
     <g id="text_3">
      <!-- 100 -->
      <g transform="translate(7.46 102.228001) scale(0.16 -0.16)">
       <defs>
        <path id="DejaVuSans-31" d="M 794 531 
L 1825 531 
L 1825 4091 
L 703 3866 
L 703 4441 
L 1819 4666 
L 2450 4666 
L 2450 531 
L 3481 531 
L 3481 0 
L 794 0 
L 794 531 
z
" transform="scale(0.015625)"/>
       </defs>
       <use xlink:href="#DejaVuSans-31"/>
       <use xlink:href="#DejaVuSans-30" x="63.623047"/>
       <use xlink:href="#DejaVuSans-30" x="127.246094"/>
      </g>
     </g>
    </g>
    <g id="text_4">
     <!-- $c_{el}$ [Jmol$^{-1}$K$^{-1}$] -->
     <g transform="translate(0.1 201.12) rotate(-90) scale(0.16 -0.16)">
      <defs>
       <path id="DejaVuSans-Oblique-63" d="M 3431 3366 
L 3316 2797 
Q 3109 2947 2876 3022 
Q 2644 3097 2394 3097 
Q 2119 3097 1870 3000 
Q 1622 2903 1453 2725 
Q 1184 2453 1037 2087 
Q 891 1722 891 1331 
Q 891 859 1127 628 
Q 1363 397 1844 397 
Q 2081 397 2348 469 
Q 2616 541 2906 684 
L 2797 116 
Q 2547 13 2283 -39 
Q 2019 -91 1741 -91 
Q 1044 -91 669 257 
Q 294 606 294 1253 
Q 294 1797 489 2255 
Q 684 2713 1069 3078 
Q 1331 3328 1684 3456 
Q 2038 3584 2456 3584 
Q 2700 3584 2940 3529 
Q 3181 3475 3431 3366 
z
" transform="scale(0.015625)"/>
       <path id="DejaVuSans-Oblique-65" d="M 3078 2063 
Q 3088 2113 3092 2166 
Q 3097 2219 3097 2272 
Q 3097 2653 2873 2875 
Q 2650 3097 2266 3097 
Q 1838 3097 1509 2826 
Q 1181 2556 1013 2059 
L 3078 2063 
z
M 3578 1613 
L 903 1613 
Q 884 1494 878 1425 
Q 872 1356 872 1306 
Q 872 872 1139 634 
Q 1406 397 1894 397 
Q 2269 397 2603 481 
Q 2938 566 3225 728 
L 3116 159 
Q 2806 34 2476 -28 
Q 2147 -91 1806 -91 
Q 1078 -91 686 257 
Q 294 606 294 1247 
Q 294 1794 489 2264 
Q 684 2734 1063 3103 
Q 1306 3334 1642 3459 
Q 1978 3584 2356 3584 
Q 2950 3584 3301 3228 
Q 3653 2872 3653 2272 
Q 3653 2128 3634 1964 
Q 3616 1800 3578 1613 
z
" transform="scale(0.015625)"/>
       <path id="DejaVuSans-Oblique-6c" d="M 1172 4863 
L 1747 4863 
L 800 0 
L 225 0 
L 1172 4863 
z
" transform="scale(0.015625)"/>
       <path id="DejaVuSans-20" transform="scale(0.015625)"/>
       <path id="DejaVuSans-5b" d="M 550 4863 
L 1875 4863 
L 1875 4416 
L 1125 4416 
L 1125 -397 
L 1875 -397 
L 1875 -844 
L 550 -844 
L 550 4863 
z
" transform="scale(0.015625)"/>
       <path id="DejaVuSans-4a" d="M 628 4666 
L 1259 4666 
L 1259 325 
Q 1259 -519 939 -900 
Q 619 -1281 -91 -1281 
L -331 -1281 
L -331 -750 
L -134 -750 
Q 284 -750 456 -515 
Q 628 -281 628 325 
L 628 4666 
z
" transform="scale(0.015625)"/>
       <path id="DejaVuSans-6d" d="M 3328 2828 
Q 3544 3216 3844 3400 
Q 4144 3584 4550 3584 
Q 5097 3584 5394 3201 
Q 5691 2819 5691 2113 
L 5691 0 
L 5113 0 
L 5113 2094 
Q 5113 2597 4934 2840 
Q 4756 3084 4391 3084 
Q 3944 3084 3684 2787 
Q 3425 2491 3425 1978 
L 3425 0 
L 2847 0 
L 2847 2094 
Q 2847 2600 2669 2842 
Q 2491 3084 2119 3084 
Q 1678 3084 1418 2786 
Q 1159 2488 1159 1978 
L 1159 0 
L 581 0 
L 581 3500 
L 1159 3500 
L 1159 2956 
Q 1356 3278 1631 3431 
Q 1906 3584 2284 3584 
Q 2666 3584 2933 3390 
Q 3200 3197 3328 2828 
z
" transform="scale(0.015625)"/>
       <path id="DejaVuSans-6f" d="M 1959 3097 
Q 1497 3097 1228 2736 
Q 959 2375 959 1747 
Q 959 1119 1226 758 
Q 1494 397 1959 397 
Q 2419 397 2687 759 
Q 2956 1122 2956 1747 
Q 2956 2369 2687 2733 
Q 2419 3097 1959 3097 
z
M 1959 3584 
Q 2709 3584 3137 3096 
Q 3566 2609 3566 1747 
Q 3566 888 3137 398 
Q 2709 -91 1959 -91 
Q 1206 -91 779 398 
Q 353 888 353 1747 
Q 353 2609 779 3096 
Q 1206 3584 1959 3584 
z
" transform="scale(0.015625)"/>
       <path id="DejaVuSans-6c" d="M 603 4863 
L 1178 4863 
L 1178 0 
L 603 0 
L 603 4863 
z
" transform="scale(0.015625)"/>
       <path id="DejaVuSans-2212" d="M 678 2272 
L 4684 2272 
L 4684 1741 
L 678 1741 
L 678 2272 
z
" transform="scale(0.015625)"/>
       <path id="DejaVuSans-4b" d="M 628 4666 
L 1259 4666 
L 1259 2694 
L 3353 4666 
L 4166 4666 
L 1850 2491 
L 4331 0 
L 3500 0 
L 1259 2247 
L 1259 0 
L 628 0 
L 628 4666 
z
" transform="scale(0.015625)"/>
       <path id="DejaVuSans-5d" d="M 1947 4863 
L 1947 -844 
L 622 -844 
L 622 -397 
L 1369 -397 
L 1369 4416 
L 622 4416 
L 622 4863 
L 1947 4863 
z
" transform="scale(0.015625)"/>
      </defs>
      <use xlink:href="#DejaVuSans-Oblique-63" transform="translate(0 0.684375)"/>
      <use xlink:href="#DejaVuSans-Oblique-65" transform="translate(54.980469 -15.721875) scale(0.7)"/>
      <use xlink:href="#DejaVuSans-Oblique-6c" transform="translate(98.046875 -15.721875) scale(0.7)"/>
      <use xlink:href="#DejaVuSans-20" transform="translate(120.229492 0.684375)"/>
      <use xlink:href="#DejaVuSans-5b" transform="translate(152.016602 0.684375)"/>
      <use xlink:href="#DejaVuSans-4a" transform="translate(191.030273 0.684375)"/>
      <use xlink:href="#DejaVuSans-6d" transform="translate(220.522461 0.684375)"/>
      <use xlink:href="#DejaVuSans-6f" transform="translate(317.93457 0.684375)"/>
      <use xlink:href="#DejaVuSans-6c" transform="translate(379.116211 0.684375)"/>
      <use xlink:href="#DejaVuSans-2212" transform="translate(407.856445 38.965625) scale(0.7)"/>
      <use xlink:href="#DejaVuSans-31" transform="translate(466.508789 38.965625) scale(0.7)"/>
      <use xlink:href="#DejaVuSans-4b" transform="translate(513.779297 0.684375)"/>
      <use xlink:href="#DejaVuSans-2212" transform="translate(580.3125 38.965625) scale(0.7)"/>
      <use xlink:href="#DejaVuSans-31" transform="translate(638.964844 38.965625) scale(0.7)"/>
      <use xlink:href="#DejaVuSans-5d" transform="translate(686.235352 0.684375)"/>
     </g>
    </g>
   </g>
   <g id="line2d_9">
    <path d="M 61.644889 209.816215 
L 65.486016 209.15511 
L 69.327144 208.188881 
L 73.168272 206.91765 
L 77.009399 205.343166 
L 80.850527 203.474517 
L 84.691654 201.336353 
L 88.532782 198.972442 
L 93.654285 195.571679 
L 112.859923 182.481993 
L 119.261803 178.496773 
L 125.663682 174.758797 
L 133.345937 170.545246 
L 142.308568 165.896518 
L 155.112327 159.54435 
L 171.757213 151.558205 
L 187.121723 144.434909 
L 199.925482 138.752368 
L 211.448865 133.891294 
L 221.691871 129.800812 
L 231.934878 125.942446 
L 242.177885 122.322307 
L 252.420892 118.939824 
L 262.663899 115.789401 
L 272.906906 112.861928 
L 283.149913 110.146032 
L 294.673296 107.327759 
L 306.196678 104.742394 
L 311.318182 103.663164 
L 311.318182 103.663164 
" clip-path="url(#pae5b2ab1c5)" style="fill: none; stroke: #1f77b4; stroke-width: 1.5; stroke-linecap: square"/>
   </g>
   <g id="line2d_10">
    <path d="M 61.644889 209.318728 
L 64.20564 208.434306 
L 66.766392 207.255078 
L 69.327144 205.781046 
L 71.887896 204.012279 
L 74.448647 201.94935 
L 77.009399 199.594709 
L 79.570151 196.955125 
L 82.130903 194.04427 
L 85.97203 189.220028 
L 89.813158 183.944955 
L 94.934661 176.444366 
L 109.018796 155.460382 
L 114.140299 148.368199 
L 117.981427 143.361609 
L 121.822554 138.645731 
L 125.663682 134.227416 
L 129.504809 130.104499 
L 133.345937 126.268554 
L 137.187065 122.707052 
L 141.028192 119.404984 
L 144.86932 116.346057 
L 148.710447 113.513537 
L 153.831951 110.060438 
L 158.953454 106.942687 
L 164.074958 104.125141 
L 169.196461 101.575681 
L 174.317965 99.265323 
L 179.439468 97.168133 
L 185.841347 94.811517 
L 192.243227 92.712741 
L 198.645106 90.838048 
L 206.455399 88.812707 
L 214.009616 87.088698 
L 222.972247 85.296878 
L 231.934878 83.737345 
L 242.177885 82.192167 
L 253.701268 80.703626 
L 266.505027 79.301981 
L 280.589161 78.006387 
L 295.953671 76.826632 
L 311.318182 75.84 
L 311.318182 75.84 
" clip-path="url(#pae5b2ab1c5)" style="fill: none; stroke-dasharray: 5.55,2.4; stroke-dashoffset: 0; stroke: #ff7f0e; stroke-opacity: 0.7; stroke-width: 1.5"/>
   </g>
   <g id="line2d_11">
    <path d="M 61.644889 210.24 
L 110.299172 210.130098 
L 117.981427 209.864709 
L 124.383306 209.409742 
L 129.504809 208.836281 
L 134.626313 208.041684 
L 139.747816 207.004504 
L 144.86932 205.714492 
L 149.990823 204.172068 
L 155.112327 202.386847 
L 160.23383 200.375695 
L 166.635709 197.577985 
L 173.037589 194.51178 
L 180.719844 190.552441 
L 189.682475 185.660333 
L 203.766609 177.671074 
L 222.972247 166.794555 
L 234.49563 160.525249 
L 244.738637 155.20003 
L 254.981644 150.141968 
L 263.944275 145.948546 
L 272.906906 141.976088 
L 281.869537 138.223321 
L 290.832168 134.685445 
L 301.075175 130.895942 
L 311.318182 127.364377 
L 311.318182 127.364377 
" clip-path="url(#pae5b2ab1c5)" style="fill: none; stroke-dasharray: 5.55,2.4; stroke-dashoffset: 0; stroke: #2ca02c; stroke-opacity: 0.7; stroke-width: 1.5"/>
   </g>
   <g id="patch_3">
    <path d="M 45 216.96 
L 45 69.12 
" style="fill: none; stroke: #000000; stroke-width: 0.8; stroke-linejoin: miter; stroke-linecap: square"/>
   </g>
   <g id="patch_4">
    <path d="M 324 216.96 
L 324 69.12 
" style="fill: none; stroke: #000000; stroke-width: 0.8; stroke-linejoin: miter; stroke-linecap: square"/>
   </g>
   <g id="patch_5">
    <path d="M 45 216.96 
L 324 216.96 
" style="fill: none; stroke: #000000; stroke-width: 0.8; stroke-linejoin: miter; stroke-linecap: square"/>
   </g>
   <g id="patch_6">
    <path d="M 45 69.12 
L 324 69.12 
" style="fill: none; stroke: #000000; stroke-width: 0.8; stroke-linejoin: miter; stroke-linecap: square"/>
   </g>
   <g id="legend_1">
    <g id="patch_7">
     <path d="M 54.1 136.764688 
L 111.43 136.764688 
Q 114.03 136.764688 114.03 134.164688 
L 114.03 78.22 
Q 114.03 75.62 111.43 75.62 
L 54.1 75.62 
Q 51.5 75.62 51.5 78.22 
L 51.5 134.164688 
Q 51.5 136.764688 54.1 136.764688 
z
" style="fill: #ffffff; opacity: 0.8; stroke: #cccccc; stroke-linejoin: miter"/>
    </g>
    <g id="line2d_12">
     <path d="M 56.7 86.147969 
L 69.7 86.147969 
L 82.7 86.147969 
" style="fill: none; stroke: #1f77b4; stroke-width: 1.5; stroke-linecap: square"/>
    </g>
    <g id="text_5">
     <!-- $c_{el}$ -->
     <g transform="translate(93.1 90.697969) scale(0.13 -0.13)">
      <use xlink:href="#DejaVuSans-Oblique-63"/>
      <use xlink:href="#DejaVuSans-Oblique-65" transform="translate(54.980469 -16.40625) scale(0.7)"/>
      <use xlink:href="#DejaVuSans-Oblique-6c" transform="translate(98.046875 -16.40625) scale(0.7)"/>
     </g>
    </g>
    <g id="line2d_13">
     <path d="M 56.7 105.229531 
L 69.7 105.229531 
L 82.7 105.229531 
" style="fill: none; stroke-dasharray: 5.55,2.4; stroke-dashoffset: 0; stroke: #ff7f0e; stroke-opacity: 0.7; stroke-width: 1.5"/>
    </g>
    <g id="text_6">
     <!-- $c_D$ -->
     <g transform="translate(93.1 109.779531) scale(0.13 -0.13)">
      <defs>
       <path id="DejaVuSans-Oblique-44" d="M 1081 4666 
L 2438 4666 
Q 3519 4666 4070 4208 
Q 4622 3750 4622 2847 
Q 4622 2250 4412 1698 
Q 4203 1147 3834 769 
Q 3463 381 2891 190 
Q 2319 0 1538 0 
L 172 0 
L 1081 4666 
z
M 1613 4147 
L 909 519 
L 1734 519 
Q 2794 519 3375 1128 
Q 3956 1738 3956 2847 
Q 3956 3519 3581 3833 
Q 3206 4147 2406 4147 
L 1613 4147 
z
" transform="scale(0.015625)"/>
      </defs>
      <use xlink:href="#DejaVuSans-Oblique-63"/>
      <use xlink:href="#DejaVuSans-Oblique-44" transform="translate(54.980469 -16.40625) scale(0.7)"/>
     </g>
    </g>
    <g id="line2d_14">
     <path d="M 56.7 124.311094 
L 69.7 124.311094 
L 82.7 124.311094 
" style="fill: none; stroke-dasharray: 5.55,2.4; stroke-dashoffset: 0; stroke: #2ca02c; stroke-opacity: 0.7; stroke-width: 1.5"/>
    </g>
    <g id="text_7">
     <!-- $c_E$ -->
     <g transform="translate(93.1 128.861094) scale(0.13 -0.13)">
      <defs>
       <path id="DejaVuSans-Oblique-45" d="M 1081 4666 
L 4031 4666 
L 3928 4134 
L 1606 4134 
L 1338 2753 
L 3566 2753 
L 3463 2222 
L 1234 2222 
L 909 531 
L 3284 531 
L 3181 0 
L 172 0 
L 1081 4666 
z
" transform="scale(0.015625)"/>
      </defs>
      <use xlink:href="#DejaVuSans-Oblique-63"/>
      <use xlink:href="#DejaVuSans-Oblique-45" transform="translate(54.980469 -16.40625) scale(0.7)"/>
     </g>
    </g>
   </g>
  </g>
  <g id="axes_2">
   <g id="patch_8">
    <path d="M 45 364.8 
L 324 364.8 
L 324 216.96 
L 45 216.96 
z
" style="fill: #ffffff"/>
   </g>
   <g id="matplotlib.axis_3">
    <g id="xtick_6">
     <g id="line2d_15">
      <g>
       <use xlink:href="#ma32c7163d3" x="55.243009" y="364.8" style="stroke: #000000; stroke-width: 0.8"/>
      </g>
     </g>
    </g>
    <g id="xtick_7">
     <g id="line2d_16">
      <g>
       <use xlink:href="#ma32c7163d3" x="119.261803" y="364.8" style="stroke: #000000; stroke-width: 0.8"/>
      </g>
     </g>
    </g>
    <g id="xtick_8">
     <g id="line2d_17">
      <g>
       <use xlink:href="#ma32c7163d3" x="183.280596" y="364.8" style="stroke: #000000; stroke-width: 0.8"/>
      </g>
     </g>
    </g>
    <g id="xtick_9">
     <g id="line2d_18">
      <g>
       <use xlink:href="#ma32c7163d3" x="247.299389" y="364.8" style="stroke: #000000; stroke-width: 0.8"/>
      </g>
     </g>
    </g>
    <g id="xtick_10">
     <g id="line2d_19">
      <g>
       <use xlink:href="#ma32c7163d3" x="311.318182" y="364.8" style="stroke: #000000; stroke-width: 0.8"/>
      </g>
     </g>
    </g>
   </g>
   <g id="matplotlib.axis_4">
    <g id="ytick_4">
     <g id="line2d_20">
      <g>
       <use xlink:href="#m06e32c56ec" x="45" y="358.08" style="stroke: #000000; stroke-width: 0.8"/>
      </g>
     </g>
     <g id="text_8">
      <!-- 0 -->
      <g transform="translate(27.82 364.15875) scale(0.16 -0.16)">
       <use xlink:href="#DejaVuSans-30"/>
      </g>
     </g>
    </g>
    <g id="ytick_5">
     <g id="line2d_21">
      <g>
       <use xlink:href="#m06e32c56ec" x="45" y="293.306822" style="stroke: #000000; stroke-width: 0.8"/>
      </g>
     </g>
     <g id="text_9">
      <!-- 20 -->
      <g transform="translate(17.64 299.385572) scale(0.16 -0.16)">
       <defs>
        <path id="DejaVuSans-32" d="M 1228 531 
L 3431 531 
L 3431 0 
L 469 0 
L 469 531 
Q 828 903 1448 1529 
Q 2069 2156 2228 2338 
Q 2531 2678 2651 2914 
Q 2772 3150 2772 3378 
Q 2772 3750 2511 3984 
Q 2250 4219 1831 4219 
Q 1534 4219 1204 4116 
Q 875 4013 500 3803 
L 500 4441 
Q 881 4594 1212 4672 
Q 1544 4750 1819 4750 
Q 2544 4750 2975 4387 
Q 3406 4025 3406 3419 
Q 3406 3131 3298 2873 
Q 3191 2616 2906 2266 
Q 2828 2175 2409 1742 
Q 1991 1309 1228 531 
z
" transform="scale(0.015625)"/>
       </defs>
       <use xlink:href="#DejaVuSans-32"/>
       <use xlink:href="#DejaVuSans-30" x="63.623047"/>
      </g>
     </g>
    </g>
    <g id="ytick_6">
     <g id="line2d_22">
      <g>
       <use xlink:href="#m06e32c56ec" x="45" y="228.533645" style="stroke: #000000; stroke-width: 0.8"/>
      </g>
     </g>
     <g id="text_10">
      <!-- 40 -->
      <g transform="translate(17.64 234.612395) scale(0.16 -0.16)">
       <defs>
        <path id="DejaVuSans-34" d="M 2419 4116 
L 825 1625 
L 2419 1625 
L 2419 4116 
z
M 2253 4666 
L 3047 4666 
L 3047 1625 
L 3713 1625 
L 3713 1100 
L 3047 1100 
L 3047 0 
L 2419 0 
L 2419 1100 
L 313 1100 
L 313 1709 
L 2253 4666 
z
" transform="scale(0.015625)"/>
       </defs>
       <use xlink:href="#DejaVuSans-34"/>
       <use xlink:href="#DejaVuSans-30" x="63.623047"/>
      </g>
     </g>
    </g>
    <g id="text_11">
     <!-- $c_{M}$ [Jmol$^{-1}$K$^{-1}$] -->
     <g transform="translate(10.28 348.8) rotate(-90) scale(0.16 -0.16)">
      <defs>
       <path id="DejaVuSans-Oblique-4d" d="M 1081 4666 
L 2028 4666 
L 2572 1522 
L 4378 4666 
L 5350 4666 
L 4441 0 
L 3828 0 
L 4622 4091 
L 2791 897 
L 2175 897 
L 1581 4103 
L 788 0 
L 172 0 
L 1081 4666 
z
" transform="scale(0.015625)"/>
      </defs>
      <use xlink:href="#DejaVuSans-Oblique-63" transform="translate(0 0.684375)"/>
      <use xlink:href="#DejaVuSans-Oblique-4d" transform="translate(54.980469 -15.721875) scale(0.7)"/>
      <use xlink:href="#DejaVuSans-20" transform="translate(118.110352 0.684375)"/>
      <use xlink:href="#DejaVuSans-5b" transform="translate(149.897461 0.684375)"/>
      <use xlink:href="#DejaVuSans-4a" transform="translate(188.911133 0.684375)"/>
      <use xlink:href="#DejaVuSans-6d" transform="translate(218.40332 0.684375)"/>
      <use xlink:href="#DejaVuSans-6f" transform="translate(315.81543 0.684375)"/>
      <use xlink:href="#DejaVuSans-6c" transform="translate(376.99707 0.684375)"/>
      <use xlink:href="#DejaVuSans-2212" transform="translate(405.737305 38.965625) scale(0.7)"/>
      <use xlink:href="#DejaVuSans-31" transform="translate(464.389648 38.965625) scale(0.7)"/>
      <use xlink:href="#DejaVuSans-4b" transform="translate(511.660156 0.684375)"/>
      <use xlink:href="#DejaVuSans-2212" transform="translate(578.193359 38.965625) scale(0.7)"/>
      <use xlink:href="#DejaVuSans-31" transform="translate(636.845703 38.965625) scale(0.7)"/>
      <use xlink:href="#DejaVuSans-5d" transform="translate(684.116211 0.684375)"/>
     </g>
    </g>
   </g>
   <g id="line2d_23">
    <path d="M 61.644889 358.08 
L 112.859923 357.970058 
L 121.822554 357.705709 
L 128.224434 357.324088 
L 134.626313 356.701471 
L 139.747816 355.974724 
L 144.86932 354.994397 
L 148.710447 354.062425 
L 152.551575 352.936445 
L 156.392703 351.591859 
L 160.23383 350.002016 
L 164.074958 348.137554 
L 167.916085 345.965367 
L 171.757213 343.446994 
L 174.317965 341.553272 
L 176.878716 339.468767 
L 179.439468 337.173688 
L 182.00022 334.643666 
L 184.560971 331.847703 
L 187.121723 328.744833 
L 189.682475 325.278387 
L 192.243227 321.36545 
L 194.803978 316.875656 
L 197.36473 311.582998 
L 198.645106 308.510741 
L 199.925482 305.03474 
L 201.205858 300.990502 
L 202.486234 296.070515 
L 203.766609 289.585975 
L 205.046985 279.343212 
L 205.623154 271.03114 
L 205.911239 263.943489 
L 206.199324 248.447425 
L 206.327361 223.68 
L 206.455399 275.19566 
L 206.743483 290.314126 
L 207.319652 301.403723 
L 207.607737 304.639173 
L 208.888113 313.37156 
L 210.168489 318.413322 
L 211.448865 321.946605 
L 212.72924 324.65456 
L 214.009616 326.841217 
L 215.289992 328.668636 
L 216.570368 330.233488 
L 219.13112 332.804984 
L 221.691871 334.858972 
L 224.252623 336.557094 
L 226.813375 337.995775 
L 229.374127 339.237179 
L 233.215254 340.818723 
L 237.056382 342.145279 
L 242.177885 343.621548 
L 247.299389 344.84851 
L 253.701268 346.123666 
L 261.383523 347.374774 
L 269.065778 348.402256 
L 278.028409 349.392697 
L 289.551792 350.424581 
L 302.355551 351.34118 
L 311.318182 351.875781 
L 311.318182 351.875781 
" clip-path="url(#pb9278e338b)" style="fill: none; stroke: #1f77b4; stroke-width: 1.5; stroke-linecap: square"/>
   </g>
   <g id="patch_9">
    <path d="M 45 364.8 
L 45 216.96 
" style="fill: none; stroke: #000000; stroke-width: 0.8; stroke-linejoin: miter; stroke-linecap: square"/>
   </g>
   <g id="patch_10">
    <path d="M 324 364.8 
L 324 216.96 
" style="fill: none; stroke: #000000; stroke-width: 0.8; stroke-linejoin: miter; stroke-linecap: square"/>
   </g>
   <g id="patch_11">
    <path d="M 45 364.8 
L 324 364.8 
" style="fill: none; stroke: #000000; stroke-width: 0.8; stroke-linejoin: miter; stroke-linecap: square"/>
   </g>
   <g id="patch_12">
    <path d="M 45 216.96 
L 324 216.96 
" style="fill: none; stroke: #000000; stroke-width: 0.8; stroke-linejoin: miter; stroke-linecap: square"/>
   </g>
  </g>
  <g id="axes_3">
   <g id="patch_13">
    <path d="M 45 512.64 
L 324 512.64 
L 324 364.8 
L 45 364.8 
z
" style="fill: #ffffff"/>
   </g>
   <g id="PathCollection_1">
    <defs>
     <path id="C0_0_ae8983e99c" d="M 0 2.5 
C 0.663008 2.5 1.29895 2.236584 1.767767 1.767767 
C 2.236584 1.29895 2.5 0.663008 2.5 -0 
C 2.5 -0.663008 2.236584 -1.29895 1.767767 -1.767767 
C 1.29895 -2.236584 0.663008 -2.5 0 -2.5 
C -0.663008 -2.5 -1.29895 -2.236584 -1.767767 -1.767767 
C -2.236584 -1.29895 -2.5 -0.663008 -2.5 0 
C -2.5 0.663008 -2.236584 1.29895 -1.767767 1.767767 
C -1.29895 2.236584 -0.663008 2.5 0 2.5 
z
"/>
    </defs>
    <g clip-path="url(#p692b993dfa)">
     <use xlink:href="#C0_0_ae8983e99c" x="57.681818" y="505.92" style="fill: none; stroke: #000000"/>
    </g>
    <g clip-path="url(#p692b993dfa)">
     <use xlink:href="#C0_0_ae8983e99c" x="63.169151" y="505.595361" style="fill: none; stroke: #000000"/>
    </g>
    <g clip-path="url(#p692b993dfa)">
     <use xlink:href="#C0_0_ae8983e99c" x="69.875875" y="505.595361" style="fill: none; stroke: #000000"/>
    </g>
    <g clip-path="url(#p692b993dfa)">
     <use xlink:href="#C0_0_ae8983e99c" x="75.363207" y="505.595361" style="fill: none; stroke: #000000"/>
    </g>
    <g clip-path="url(#p692b993dfa)">
     <use xlink:href="#C0_0_ae8983e99c" x="82.679633" y="503.647534" style="fill: none; stroke: #000000"/>
    </g>
    <g clip-path="url(#p692b993dfa)">
     <use xlink:href="#C0_0_ae8983e99c" x="89.996072" y="500.076521" style="fill: none; stroke: #000000"/>
    </g>
    <g clip-path="url(#p692b993dfa)">
     <use xlink:href="#C0_0_ae8983e99c" x="99.141605" y="495.206961" style="fill: none; stroke: #000000"/>
    </g>
    <g clip-path="url(#p692b993dfa)">
     <use xlink:href="#C0_0_ae8983e99c" x="107.067746" y="490.012751" style="fill: none; stroke: #000000"/>
    </g>
    <g clip-path="url(#p692b993dfa)">
     <use xlink:href="#C0_0_ae8983e99c" x="114.993887" y="485.14319" style="fill: none; stroke: #000000"/>
    </g>
    <g clip-path="url(#p692b993dfa)">
     <use xlink:href="#C0_0_ae8983e99c" x="124.13942" y="479.299712" style="fill: none; stroke: #000000"/>
    </g>
    <g clip-path="url(#p692b993dfa)">
     <use xlink:href="#C0_0_ae8983e99c" x="131.455859" y="473.456233" style="fill: none; stroke: #000000"/>
    </g>
    <g clip-path="url(#p692b993dfa)">
     <use xlink:href="#C0_0_ae8983e99c" x="138.772298" y="467.937394" style="fill: none; stroke: #000000"/>
    </g>
    <g clip-path="url(#p692b993dfa)">
     <use xlink:href="#C0_0_ae8983e99c" x="145.479022" y="463.067823" style="fill: none; stroke: #000000"/>
    </g>
    <g clip-path="url(#p692b993dfa)">
     <use xlink:href="#C0_0_ae8983e99c" x="155.843972" y="456.250436" style="fill: none; stroke: #000000"/>
    </g>
    <g clip-path="url(#p692b993dfa)">
     <use xlink:href="#C0_0_ae8983e99c" x="165.59922" y="449.10841" style="fill: none; stroke: #000000"/>
    </g>
    <g clip-path="url(#p692b993dfa)">
     <use xlink:href="#C0_0_ae8983e99c" x="175.354454" y="442.291013" style="fill: none; stroke: #000000"/>
    </g>
    <g clip-path="url(#p692b993dfa)">
     <use xlink:href="#C0_0_ae8983e99c" x="184.5" y="435.148987" style="fill: none; stroke: #000000"/>
    </g>
    <g clip-path="url(#p692b993dfa)">
     <use xlink:href="#C0_0_ae8983e99c" x="191.816439" y="426.383764" style="fill: none; stroke: #000000"/>
    </g>
    <g clip-path="url(#p692b993dfa)">
     <use xlink:href="#C0_0_ae8983e99c" x="194.86495" y="417.618551" style="fill: none; stroke: #000000"/>
    </g>
    <g clip-path="url(#p692b993dfa)">
     <use xlink:href="#C0_0_ae8983e99c" x="197.303759" y="408.853328" style="fill: none; stroke: #000000"/>
    </g>
    <g clip-path="url(#p692b993dfa)">
     <use xlink:href="#C0_0_ae8983e99c" x="199.742567" y="397.166381" style="fill: none; stroke: #000000"/>
    </g>
    <g clip-path="url(#p692b993dfa)">
     <use xlink:href="#C0_0_ae8983e99c" x="202.181376" y="389.699705" style="fill: none; stroke: #000000"/>
    </g>
    <g clip-path="url(#p692b993dfa)">
     <use xlink:href="#C0_0_ae8983e99c" x="202.791091" y="384.505505" style="fill: none; stroke: #000000"/>
    </g>
    <g clip-path="url(#p692b993dfa)">
     <use xlink:href="#C0_0_ae8983e99c" x="204.010495" y="380.934492" style="fill: none; stroke: #000000"/>
    </g>
    <g clip-path="url(#p692b993dfa)">
     <use xlink:href="#C0_0_ae8983e99c" x="206.449304" y="376.38956" style="fill: none; stroke: #000000"/>
    </g>
    <g clip-path="url(#p692b993dfa)">
     <use xlink:href="#C0_0_ae8983e99c" x="206.449304" y="371.52" style="fill: none; stroke: #000000"/>
    </g>
    <g clip-path="url(#p692b993dfa)">
     <use xlink:href="#C0_0_ae8983e99c" x="208.278411" y="377.688118" style="fill: none; stroke: #000000"/>
    </g>
    <g clip-path="url(#p692b993dfa)">
     <use xlink:href="#C0_0_ae8983e99c" x="208.278411" y="382.882318" style="fill: none; stroke: #000000"/>
    </g>
    <g clip-path="url(#p692b993dfa)">
     <use xlink:href="#C0_0_ae8983e99c" x="209.497815" y="386.77797" style="fill: none; stroke: #000000"/>
    </g>
    <g clip-path="url(#p692b993dfa)">
     <use xlink:href="#C0_0_ae8983e99c" x="210.107517" y="401.062033" style="fill: none; stroke: #000000"/>
    </g>
    <g clip-path="url(#p692b993dfa)">
     <use xlink:href="#C0_0_ae8983e99c" x="210.717219" y="403.009859" style="fill: none; stroke: #000000"/>
    </g>
    <g clip-path="url(#p692b993dfa)">
     <use xlink:href="#C0_0_ae8983e99c" x="208.888113" y="407.230141" style="fill: none; stroke: #000000"/>
    </g>
    <g clip-path="url(#p692b993dfa)">
     <use xlink:href="#C0_0_ae8983e99c" x="211.326922" y="413.398259" style="fill: none; stroke: #000000"/>
    </g>
    <g clip-path="url(#p692b993dfa)">
     <use xlink:href="#C0_0_ae8983e99c" x="211.326922" y="417.94319" style="fill: none; stroke: #000000"/>
    </g>
    <g clip-path="url(#p692b993dfa)">
     <use xlink:href="#C0_0_ae8983e99c" x="214.375433" y="421.838843" style="fill: none; stroke: #000000"/>
    </g>
    <g clip-path="url(#p692b993dfa)">
     <use xlink:href="#C0_0_ae8983e99c" x="219.253063" y="421.838843" style="fill: none; stroke: #000000"/>
    </g>
    <g clip-path="url(#p692b993dfa)">
     <use xlink:href="#C0_0_ae8983e99c" x="225.350085" y="420.540285" style="fill: none; stroke: #000000"/>
    </g>
    <g clip-path="url(#p692b993dfa)">
     <use xlink:href="#C0_0_ae8983e99c" x="231.447119" y="420.215656" style="fill: none; stroke: #000000"/>
    </g>
    <g clip-path="url(#p692b993dfa)">
     <use xlink:href="#C0_0_ae8983e99c" x="241.202367" y="418.26783" style="fill: none; stroke: #000000"/>
    </g>
    <g clip-path="url(#p692b993dfa)">
     <use xlink:href="#C0_0_ae8983e99c" x="250.957602" y="416.644632" style="fill: none; stroke: #000000"/>
    </g>
    <g clip-path="url(#p692b993dfa)">
     <use xlink:href="#C0_0_ae8983e99c" x="262.541956" y="414.047538" style="fill: none; stroke: #000000"/>
    </g>
    <g clip-path="url(#p692b993dfa)">
     <use xlink:href="#C0_0_ae8983e99c" x="272.906906" y="412.099712" style="fill: none; stroke: #000000"/>
    </g>
    <g clip-path="url(#p692b993dfa)">
     <use xlink:href="#C0_0_ae8983e99c" x="285.710665" y="409.502606" style="fill: none; stroke: #000000"/>
    </g>
    <g clip-path="url(#p692b993dfa)">
     <use xlink:href="#C0_0_ae8983e99c" x="297.295019" y="407.55478" style="fill: none; stroke: #000000"/>
    </g>
    <g clip-path="url(#p692b993dfa)">
     <use xlink:href="#C0_0_ae8983e99c" x="308.269671" y="405.931593" style="fill: none; stroke: #000000"/>
    </g>
   </g>
   <g id="matplotlib.axis_5">
    <g id="xtick_11">
     <g id="line2d_24">
      <g>
       <use xlink:href="#ma32c7163d3" x="55.243009" y="512.64" style="stroke: #000000; stroke-width: 0.8"/>
      </g>
     </g>
     <g id="text_12">
      <!-- 0 -->
      <g transform="translate(50.153009 531.7975) scale(0.16 -0.16)">
       <use xlink:href="#DejaVuSans-30"/>
      </g>
     </g>
    </g>
    <g id="xtick_12">
     <g id="line2d_25">
      <g>
       <use xlink:href="#ma32c7163d3" x="119.261803" y="512.64" style="stroke: #000000; stroke-width: 0.8"/>
      </g>
     </g>
     <g id="text_13">
      <!-- 50 -->
      <g transform="translate(109.081803 531.7975) scale(0.16 -0.16)">
       <use xlink:href="#DejaVuSans-35"/>
       <use xlink:href="#DejaVuSans-30" x="63.623047"/>
      </g>
     </g>
    </g>
    <g id="xtick_13">
     <g id="line2d_26">
      <g>
       <use xlink:href="#ma32c7163d3" x="183.280596" y="512.64" style="stroke: #000000; stroke-width: 0.8"/>
      </g>
     </g>
     <g id="text_14">
      <!-- 100 -->
      <g transform="translate(168.010596 531.7975) scale(0.16 -0.16)">
       <use xlink:href="#DejaVuSans-31"/>
       <use xlink:href="#DejaVuSans-30" x="63.623047"/>
       <use xlink:href="#DejaVuSans-30" x="127.246094"/>
      </g>
     </g>
    </g>
    <g id="xtick_14">
     <g id="line2d_27">
      <g>
       <use xlink:href="#ma32c7163d3" x="247.299389" y="512.64" style="stroke: #000000; stroke-width: 0.8"/>
      </g>
     </g>
     <g id="text_15">
      <!-- 150 -->
      <g transform="translate(232.029389 531.7975) scale(0.16 -0.16)">
       <use xlink:href="#DejaVuSans-31"/>
       <use xlink:href="#DejaVuSans-35" x="63.623047"/>
       <use xlink:href="#DejaVuSans-30" x="127.246094"/>
      </g>
     </g>
    </g>
    <g id="xtick_15">
     <g id="line2d_28">
      <g>
       <use xlink:href="#ma32c7163d3" x="311.318182" y="512.64" style="stroke: #000000; stroke-width: 0.8"/>
      </g>
     </g>
     <g id="text_16">
      <!-- 200 -->
      <g transform="translate(296.048182 531.7975) scale(0.16 -0.16)">
       <use xlink:href="#DejaVuSans-32"/>
       <use xlink:href="#DejaVuSans-30" x="63.623047"/>
       <use xlink:href="#DejaVuSans-30" x="127.246094"/>
      </g>
     </g>
    </g>
    <g id="text_17">
     <!-- T [K] -->
     <g transform="translate(165.5825 551.2825) scale(0.16 -0.16)">
      <defs>
       <path id="DejaVuSans-54" d="M -19 4666 
L 3928 4666 
L 3928 4134 
L 2272 4134 
L 2272 0 
L 1638 0 
L 1638 4134 
L -19 4134 
L -19 4666 
z
" transform="scale(0.015625)"/>
      </defs>
      <use xlink:href="#DejaVuSans-54"/>
      <use xlink:href="#DejaVuSans-20" x="61.083984"/>
      <use xlink:href="#DejaVuSans-5b" x="92.871094"/>
      <use xlink:href="#DejaVuSans-4b" x="131.884766"/>
      <use xlink:href="#DejaVuSans-5d" x="197.460938"/>
     </g>
    </g>
   </g>
   <g id="matplotlib.axis_6">
    <g id="ytick_7">
     <g id="line2d_29">
      <g>
       <use xlink:href="#m06e32c56ec" x="45" y="505.92" style="stroke: #000000; stroke-width: 0.8"/>
      </g>
     </g>
     <g id="text_18">
      <!-- 0 -->
      <g transform="translate(27.82 511.99875) scale(0.16 -0.16)">
       <use xlink:href="#DejaVuSans-30"/>
      </g>
     </g>
    </g>
    <g id="ytick_8">
     <g id="line2d_30">
      <g>
       <use xlink:href="#m06e32c56ec" x="45" y="453.842705" style="stroke: #000000; stroke-width: 0.8"/>
      </g>
     </g>
     <g id="text_19">
      <!-- 50 -->
      <g transform="translate(17.64 459.921455) scale(0.16 -0.16)">
       <use xlink:href="#DejaVuSans-35"/>
       <use xlink:href="#DejaVuSans-30" x="63.623047"/>
      </g>
     </g>
    </g>
    <g id="ytick_9">
     <g id="line2d_31">
      <g>
       <use xlink:href="#m06e32c56ec" x="45" y="401.76541" style="stroke: #000000; stroke-width: 0.8"/>
      </g>
     </g>
     <g id="text_20">
      <!-- 100 -->
      <g transform="translate(7.46 407.84416) scale(0.16 -0.16)">
       <use xlink:href="#DejaVuSans-31"/>
       <use xlink:href="#DejaVuSans-30" x="63.623047"/>
       <use xlink:href="#DejaVuSans-30" x="127.246094"/>
      </g>
     </g>
    </g>
    <g id="text_21">
     <!-- $c_{V}$ [Jmol$^{-1}$K$^{-1}$] -->
     <g transform="translate(0.1 495.6) rotate(-90) scale(0.16 -0.16)">
      <defs>
       <path id="DejaVuSans-Oblique-56" d="M 1319 0 
L 500 4666 
L 1119 4666 
L 1797 653 
L 4063 4666 
L 4750 4666 
L 2053 0 
L 1319 0 
z
" transform="scale(0.015625)"/>
      </defs>
      <use xlink:href="#DejaVuSans-Oblique-63" transform="translate(0 0.684375)"/>
      <use xlink:href="#DejaVuSans-Oblique-56" transform="translate(54.980469 -15.721875) scale(0.7)"/>
      <use xlink:href="#DejaVuSans-20" transform="translate(105.600586 0.684375)"/>
      <use xlink:href="#DejaVuSans-5b" transform="translate(137.387695 0.684375)"/>
      <use xlink:href="#DejaVuSans-4a" transform="translate(176.401367 0.684375)"/>
      <use xlink:href="#DejaVuSans-6d" transform="translate(205.893555 0.684375)"/>
      <use xlink:href="#DejaVuSans-6f" transform="translate(303.305664 0.684375)"/>
      <use xlink:href="#DejaVuSans-6c" transform="translate(364.487305 0.684375)"/>
      <use xlink:href="#DejaVuSans-2212" transform="translate(393.227539 38.965625) scale(0.7)"/>
      <use xlink:href="#DejaVuSans-31" transform="translate(451.879883 38.965625) scale(0.7)"/>
      <use xlink:href="#DejaVuSans-4b" transform="translate(499.150391 0.684375)"/>
      <use xlink:href="#DejaVuSans-2212" transform="translate(565.683594 38.965625) scale(0.7)"/>
      <use xlink:href="#DejaVuSans-31" transform="translate(624.335938 38.965625) scale(0.7)"/>
      <use xlink:href="#DejaVuSans-5d" transform="translate(671.606445 0.684375)"/>
     </g>
    </g>
   </g>
   <g id="line2d_32">
    <path d="M 61.644889 505.533122 
L 65.486016 504.929593 
L 69.327144 504.047513 
L 73.168272 502.886993 
L 77.009399 501.449631 
L 80.850527 499.743722 
L 84.691654 497.791765 
L 89.813158 494.87751 
L 96.215037 490.917757 
L 110.299172 482.076698 
L 117.981427 477.576029 
L 125.663682 473.342769 
L 137.187065 467.286605 
L 149.990823 460.527494 
L 157.673078 456.254808 
L 164.074958 452.487784 
L 170.476837 448.478669 
L 176.878716 444.168035 
L 182.00022 440.447392 
L 187.121723 436.411744 
L 190.962851 433.106205 
L 194.803978 429.452379 
L 197.36473 426.722324 
L 199.925482 423.598979 
L 201.205858 421.793716 
L 202.486234 419.709598 
L 203.766609 417.125156 
L 205.046985 413.334958 
L 205.623154 410.439498 
L 205.911239 408.049191 
L 206.199324 402.954905 
L 206.327361 394.940563 
L 206.455399 411.458732 
L 206.743483 416.210298 
L 207.319652 419.556141 
L 207.607737 420.486608 
L 208.888113 422.807678 
L 210.168489 423.944897 
L 211.448865 424.600076 
L 212.72924 424.992949 
L 215.289992 425.337347 
L 217.850744 425.345767 
L 221.691871 425.018424 
L 226.813375 424.239046 
L 233.215254 422.987683 
L 243.458261 420.716709 
L 274.187282 413.779568 
L 288.271416 410.877062 
L 302.355551 408.207165 
L 311.318182 406.629673 
L 311.318182 406.629673 
" clip-path="url(#p692b993dfa)" style="fill: none; stroke: #1f77b4; stroke-width: 1.5; stroke-linecap: square"/>
   </g>
   <g id="patch_14">
    <path d="M 45 512.64 
L 45 364.8 
" style="fill: none; stroke: #000000; stroke-width: 0.8; stroke-linejoin: miter; stroke-linecap: square"/>
   </g>
   <g id="patch_15">
    <path d="M 324 512.64 
L 324 364.8 
" style="fill: none; stroke: #000000; stroke-width: 0.8; stroke-linejoin: miter; stroke-linecap: square"/>
   </g>
   <g id="patch_16">
    <path d="M 45 512.64 
L 324 512.64 
" style="fill: none; stroke: #000000; stroke-width: 0.8; stroke-linejoin: miter; stroke-linecap: square"/>
   </g>
   <g id="patch_17">
    <path d="M 45 364.8 
L 324 364.8 
" style="fill: none; stroke: #000000; stroke-width: 0.8; stroke-linejoin: miter; stroke-linecap: square"/>
   </g>
   <g id="legend_2">
    <g id="patch_18">
     <path d="M 54.1 394.281562 
L 123.993281 394.281562 
Q 126.593281 394.281562 126.593281 391.681562 
L 126.593281 373.9 
Q 126.593281 371.3 123.993281 371.3 
L 54.1 371.3 
Q 51.5 371.3 51.5 373.9 
L 51.5 391.681562 
Q 51.5 394.281562 54.1 394.281562 
z
" style="fill: #ffffff; opacity: 0.8; stroke: #cccccc; stroke-linejoin: miter"/>
    </g>
    <g id="PathCollection_2">
     <path d="M 69.7 385.465469 
C 70.363008 385.465469 70.99895 385.202053 71.467767 384.733236 
C 71.936584 384.264418 72.2 383.628477 72.2 382.965469 
C 72.2 382.302461 71.936584 381.666519 71.467767 381.197702 
C 70.99895 380.728885 70.363008 380.465469 69.7 380.465469 
C 69.036992 380.465469 68.40105 380.728885 67.932233 381.197702 
C 67.463416 381.666519 67.2 382.302461 67.2 382.965469 
C 67.2 383.628477 67.463416 384.264418 67.932233 384.733236 
C 68.40105 385.202053 69.036992 385.465469 69.7 385.465469 
L 69.7 385.465469 
z
" style="fill: none; stroke: #000000"/>
    </g>
    <g id="text_22">
     <!-- Exp. -->
     <g transform="translate(93.1 386.377969) scale(0.13 -0.13)">
      <defs>
       <path id="DejaVuSans-45" d="M 628 4666 
L 3578 4666 
L 3578 4134 
L 1259 4134 
L 1259 2753 
L 3481 2753 
L 3481 2222 
L 1259 2222 
L 1259 531 
L 3634 531 
L 3634 0 
L 628 0 
L 628 4666 
z
" transform="scale(0.015625)"/>
       <path id="DejaVuSans-78" d="M 3513 3500 
L 2247 1797 
L 3578 0 
L 2900 0 
L 1881 1375 
L 863 0 
L 184 0 
L 1544 1831 
L 300 3500 
L 978 3500 
L 1906 2253 
L 2834 3500 
L 3513 3500 
z
" transform="scale(0.015625)"/>
       <path id="DejaVuSans-70" d="M 1159 525 
L 1159 -1331 
L 581 -1331 
L 581 3500 
L 1159 3500 
L 1159 2969 
Q 1341 3281 1617 3432 
Q 1894 3584 2278 3584 
Q 2916 3584 3314 3078 
Q 3713 2572 3713 1747 
Q 3713 922 3314 415 
Q 2916 -91 2278 -91 
Q 1894 -91 1617 61 
Q 1341 213 1159 525 
z
M 3116 1747 
Q 3116 2381 2855 2742 
Q 2594 3103 2138 3103 
Q 1681 3103 1420 2742 
Q 1159 2381 1159 1747 
Q 1159 1113 1420 752 
Q 1681 391 2138 391 
Q 2594 391 2855 752 
Q 3116 1113 3116 1747 
z
" transform="scale(0.015625)"/>
       <path id="DejaVuSans-2e" d="M 684 794 
L 1344 794 
L 1344 0 
L 684 0 
L 684 794 
z
" transform="scale(0.015625)"/>
      </defs>
      <use xlink:href="#DejaVuSans-45"/>
      <use xlink:href="#DejaVuSans-78" x="63.183594"/>
      <use xlink:href="#DejaVuSans-70" x="122.363281"/>
      <use xlink:href="#DejaVuSans-2e" x="185.839844"/>
     </g>
    </g>
   </g>
  </g>
 </g>
 <defs>
  <clipPath id="pae5b2ab1c5">
   <rect x="45" y="69.12" width="279" height="147.84"/>
  </clipPath>
  <clipPath id="pb9278e338b">
   <rect x="45" y="216.96" width="279" height="147.84"/>
  </clipPath>
  <clipPath id="p692b993dfa">
   <rect x="45" y="364.8" width="279" height="147.84"/>
  </clipPath>
 </defs>
</svg>
