<?xml version="1.0" encoding="utf-8" standalone="no"?>
<!DOCTYPE svg PUBLIC "-//W3C//DTD SVG 1.1//EN"
  "http://www.w3.org/Graphics/SVG/1.1/DTD/svg11.dtd">
<svg xmlns:xlink="http://www.w3.org/1999/xlink" width="288pt" height="216pt" viewBox="0 0 288 216" xmlns="http://www.w3.org/2000/svg" version="1.1">
 <metadata>
  <rdf:RDF xmlns:dc="http://purl.org/dc/elements/1.1/" xmlns:cc="http://creativecommons.org/ns#" xmlns:rdf="http://www.w3.org/1999/02/22-rdf-syntax-ns#">
   <cc:Work>
    <dc:type rdf:resource="http://purl.org/dc/dcmitype/StillImage"/>
    <dc:date>2024-10-16T16:46:45.199463</dc:date>
    <dc:format>image/svg+xml</dc:format>
    <dc:creator>
     <cc:Agent>
      <dc:title>Matplotlib v3.8.2, https://matplotlib.org/</dc:title>
     </cc:Agent>
    </dc:creator>
   </cc:Work>
  </rdf:RDF>
 </metadata>
 <defs>
  <style type="text/css">*{stroke-linejoin: round; stroke-linecap: butt}</style>
 </defs>
 <g id="figure_1">
  <g id="patch_1">
   <path d="M 0 216 
L 288 216 
L 288 0 
L 0 0 
z
" style="fill: #ffffff"/>
  </g>
  <g id="axes_1">
   <g id="patch_2">
    <path d="M 36 192.24 
L 259.2 192.24 
L 259.2 25.92 
L 36 25.92 
z
" style="fill: #ffffff"/>
   </g>
   <g id="PathCollection_1">
    <defs>
     <path id="C0_0_374acc94f4" d="M 0 2.5 
C 0.663008 2.5 1.29895 2.236584 1.767767 1.767767 
C 2.236584 1.29895 2.5 0.663008 2.5 -0 
C 2.5 -0.663008 2.236584 -1.29895 1.767767 -1.767767 
C 1.29895 -2.236584 0.663008 -2.5 0 -2.5 
C -0.663008 -2.5 -1.29895 -2.236584 -1.767767 -1.767767 
C -2.236584 -1.29895 -2.5 -0.663008 -2.5 0 
C -2.5 0.663008 -2.236584 1.29895 -1.767767 1.767767 
C -1.29895 2.236584 -0.663008 2.5 0 2.5 
z
"/>
    </defs>
    <g clip-path="url(#pe7365166eb)">
     <use xlink:href="#C0_0_374acc94f4" x="46.145455" y="184.68" style="fill: none; stroke: #000000"/>
    </g>
    <g clip-path="url(#pe7365166eb)">
     <use xlink:href="#C0_0_374acc94f4" x="50.53532" y="184.314781" style="fill: none; stroke: #000000"/>
    </g>
    <g clip-path="url(#pe7365166eb)">
     <use xlink:href="#C0_0_374acc94f4" x="55.9007" y="184.314781" style="fill: none; stroke: #000000"/>
    </g>
    <g clip-path="url(#pe7365166eb)">
     <use xlink:href="#C0_0_374acc94f4" x="60.290566" y="184.314781" style="fill: none; stroke: #000000"/>
    </g>
    <g clip-path="url(#pe7365166eb)">
     <use xlink:href="#C0_0_374acc94f4" x="66.143707" y="182.123476" style="fill: none; stroke: #000000"/>
    </g>
    <g clip-path="url(#pe7365166eb)">
     <use xlink:href="#C0_0_374acc94f4" x="71.996858" y="178.106086" style="fill: none; stroke: #000000"/>
    </g>
    <g clip-path="url(#pe7365166eb)">
     <use xlink:href="#C0_0_374acc94f4" x="79.313284" y="172.627831" style="fill: none; stroke: #000000"/>
    </g>
    <g clip-path="url(#pe7365166eb)">
     <use xlink:href="#C0_0_374acc94f4" x="85.654197" y="166.784344" style="fill: none; stroke: #000000"/>
    </g>
    <g clip-path="url(#pe7365166eb)">
     <use xlink:href="#C0_0_374acc94f4" x="91.99511" y="161.306089" style="fill: none; stroke: #000000"/>
    </g>
    <g clip-path="url(#pe7365166eb)">
     <use xlink:href="#C0_0_374acc94f4" x="99.311536" y="154.732175" style="fill: none; stroke: #000000"/>
    </g>
    <g clip-path="url(#pe7365166eb)">
     <use xlink:href="#C0_0_374acc94f4" x="105.164687" y="148.158262" style="fill: none; stroke: #000000"/>
    </g>
    <g clip-path="url(#pe7365166eb)">
     <use xlink:href="#C0_0_374acc94f4" x="111.017838" y="141.949568" style="fill: none; stroke: #000000"/>
    </g>
    <g clip-path="url(#pe7365166eb)">
     <use xlink:href="#C0_0_374acc94f4" x="116.383218" y="136.471301" style="fill: none; stroke: #000000"/>
    </g>
    <g clip-path="url(#pe7365166eb)">
     <use xlink:href="#C0_0_374acc94f4" x="124.675177" y="128.801741" style="fill: none; stroke: #000000"/>
    </g>
    <g clip-path="url(#pe7365166eb)">
     <use xlink:href="#C0_0_374acc94f4" x="132.479376" y="120.766961" style="fill: none; stroke: #000000"/>
    </g>
    <g clip-path="url(#pe7365166eb)">
     <use xlink:href="#C0_0_374acc94f4" x="140.283564" y="113.09739" style="fill: none; stroke: #000000"/>
    </g>
    <g clip-path="url(#pe7365166eb)">
     <use xlink:href="#C0_0_374acc94f4" x="147.6" y="105.06261" style="fill: none; stroke: #000000"/>
    </g>
    <g clip-path="url(#pe7365166eb)">
     <use xlink:href="#C0_0_374acc94f4" x="153.453151" y="95.201734" style="fill: none; stroke: #000000"/>
    </g>
    <g clip-path="url(#pe7365166eb)">
     <use xlink:href="#C0_0_374acc94f4" x="155.89196" y="85.34087" style="fill: none; stroke: #000000"/>
    </g>
    <g clip-path="url(#pe7365166eb)">
     <use xlink:href="#C0_0_374acc94f4" x="157.843007" y="75.479993" style="fill: none; stroke: #000000"/>
    </g>
    <g clip-path="url(#pe7365166eb)">
     <use xlink:href="#C0_0_374acc94f4" x="159.794054" y="62.332178" style="fill: none; stroke: #000000"/>
    </g>
    <g clip-path="url(#pe7365166eb)">
     <use xlink:href="#C0_0_374acc94f4" x="161.745101" y="53.932168" style="fill: none; stroke: #000000"/>
    </g>
    <g clip-path="url(#pe7365166eb)">
     <use xlink:href="#C0_0_374acc94f4" x="162.232873" y="48.088693" style="fill: none; stroke: #000000"/>
    </g>
    <g clip-path="url(#pe7365166eb)">
     <use xlink:href="#C0_0_374acc94f4" x="163.208396" y="44.071303" style="fill: none; stroke: #000000"/>
    </g>
    <g clip-path="url(#pe7365166eb)">
     <use xlink:href="#C0_0_374acc94f4" x="165.159443" y="38.958255" style="fill: none; stroke: #000000"/>
    </g>
    <g clip-path="url(#pe7365166eb)">
     <use xlink:href="#C0_0_374acc94f4" x="165.159443" y="33.48" style="fill: none; stroke: #000000"/>
    </g>
    <g clip-path="url(#pe7365166eb)">
     <use xlink:href="#C0_0_374acc94f4" x="166.622729" y="40.419133" style="fill: none; stroke: #000000"/>
    </g>
    <g clip-path="url(#pe7365166eb)">
     <use xlink:href="#C0_0_374acc94f4" x="166.622729" y="46.262608" style="fill: none; stroke: #000000"/>
    </g>
    <g clip-path="url(#pe7365166eb)">
     <use xlink:href="#C0_0_374acc94f4" x="167.598252" y="50.645217" style="fill: none; stroke: #000000"/>
    </g>
    <g clip-path="url(#pe7365166eb)">
     <use xlink:href="#C0_0_374acc94f4" x="168.086014" y="66.714787" style="fill: none; stroke: #000000"/>
    </g>
    <g clip-path="url(#pe7365166eb)">
     <use xlink:href="#C0_0_374acc94f4" x="168.573776" y="68.906092" style="fill: none; stroke: #000000"/>
    </g>
    <g clip-path="url(#pe7365166eb)">
     <use xlink:href="#C0_0_374acc94f4" x="167.11049" y="73.653908" style="fill: none; stroke: #000000"/>
    </g>
    <g clip-path="url(#pe7365166eb)">
     <use xlink:href="#C0_0_374acc94f4" x="169.061537" y="80.593041" style="fill: none; stroke: #000000"/>
    </g>
    <g clip-path="url(#pe7365166eb)">
     <use xlink:href="#C0_0_374acc94f4" x="169.061537" y="85.706089" style="fill: none; stroke: #000000"/>
    </g>
    <g clip-path="url(#pe7365166eb)">
     <use xlink:href="#C0_0_374acc94f4" x="171.500346" y="90.088698" style="fill: none; stroke: #000000"/>
    </g>
    <g clip-path="url(#pe7365166eb)">
     <use xlink:href="#C0_0_374acc94f4" x="175.40245" y="90.088698" style="fill: none; stroke: #000000"/>
    </g>
    <g clip-path="url(#pe7365166eb)">
     <use xlink:href="#C0_0_374acc94f4" x="180.280068" y="88.627821" style="fill: none; stroke: #000000"/>
    </g>
    <g clip-path="url(#pe7365166eb)">
     <use xlink:href="#C0_0_374acc94f4" x="185.157695" y="88.262613" style="fill: none; stroke: #000000"/>
    </g>
    <g clip-path="url(#pe7365166eb)">
     <use xlink:href="#C0_0_374acc94f4" x="192.961894" y="86.071308" style="fill: none; stroke: #000000"/>
    </g>
    <g clip-path="url(#pe7365166eb)">
     <use xlink:href="#C0_0_374acc94f4" x="200.766081" y="84.245212" style="fill: none; stroke: #000000"/>
    </g>
    <g clip-path="url(#pe7365166eb)">
     <use xlink:href="#C0_0_374acc94f4" x="210.033565" y="81.32348" style="fill: none; stroke: #000000"/>
    </g>
    <g clip-path="url(#pe7365166eb)">
     <use xlink:href="#C0_0_374acc94f4" x="218.325525" y="79.132175" style="fill: none; stroke: #000000"/>
    </g>
    <g clip-path="url(#pe7365166eb)">
     <use xlink:href="#C0_0_374acc94f4" x="228.568532" y="76.210432" style="fill: none; stroke: #000000"/>
    </g>
    <g clip-path="url(#pe7365166eb)">
     <use xlink:href="#C0_0_374acc94f4" x="237.836015" y="74.019128" style="fill: none; stroke: #000000"/>
    </g>
    <g clip-path="url(#pe7365166eb)">
     <use xlink:href="#C0_0_374acc94f4" x="246.615737" y="72.193043" style="fill: none; stroke: #000000"/>
    </g>
   </g>
   <g id="matplotlib.axis_1">
    <g id="xtick_1">
     <g id="line2d_1">
      <defs>
       <path id="m7dfc47bf42" d="M 0 0 
L 0 3.5 
" style="stroke: #000000; stroke-width: 0.8"/>
      </defs>
      <g>
       <use xlink:href="#m7dfc47bf42" x="44.194408" y="192.24" style="stroke: #000000; stroke-width: 0.8"/>
      </g>
     </g>
     <g id="text_1">
      <!-- 0 -->
      <g transform="translate(39.104408 211.3975) scale(0.16 -0.16)">
       <defs>
        <path id="DejaVuSans-30" d="M 2034 4250 
Q 1547 4250 1301 3770 
Q 1056 3291 1056 2328 
Q 1056 1369 1301 889 
Q 1547 409 2034 409 
Q 2525 409 2770 889 
Q 3016 1369 3016 2328 
Q 3016 3291 2770 3770 
Q 2525 4250 2034 4250 
z
M 2034 4750 
Q 2819 4750 3233 4129 
Q 3647 3509 3647 2328 
Q 3647 1150 3233 529 
Q 2819 -91 2034 -91 
Q 1250 -91 836 529 
Q 422 1150 422 2328 
Q 422 3509 836 4129 
Q 1250 4750 2034 4750 
z
" transform="scale(0.015625)"/>
       </defs>
       <use xlink:href="#DejaVuSans-30"/>
      </g>
     </g>
    </g>
    <g id="xtick_2">
     <g id="line2d_2">
      <g>
       <use xlink:href="#m7dfc47bf42" x="146.624477" y="192.24" style="stroke: #000000; stroke-width: 0.8"/>
      </g>
     </g>
     <g id="text_2">
      <!-- 100 -->
      <g transform="translate(131.354477 211.3975) scale(0.16 -0.16)">
       <defs>
        <path id="DejaVuSans-31" d="M 794 531 
L 1825 531 
L 1825 4091 
L 703 3866 
L 703 4441 
L 1819 4666 
L 2450 4666 
L 2450 531 
L 3481 531 
L 3481 0 
L 794 0 
L 794 531 
z
" transform="scale(0.015625)"/>
       </defs>
       <use xlink:href="#DejaVuSans-31"/>
       <use xlink:href="#DejaVuSans-30" x="63.623047"/>
       <use xlink:href="#DejaVuSans-30" x="127.246094"/>
      </g>
     </g>
    </g>
    <g id="xtick_3">
     <g id="line2d_3">
      <g>
       <use xlink:href="#m7dfc47bf42" x="249.054545" y="192.24" style="stroke: #000000; stroke-width: 0.8"/>
      </g>
     </g>
     <g id="text_3">
      <!-- 200 -->
      <g transform="translate(233.784545 211.3975) scale(0.16 -0.16)">
       <defs>
        <path id="DejaVuSans-32" d="M 1228 531 
L 3431 531 
L 3431 0 
L 469 0 
L 469 531 
Q 828 903 1448 1529 
Q 2069 2156 2228 2338 
Q 2531 2678 2651 2914 
Q 2772 3150 2772 3378 
Q 2772 3750 2511 3984 
Q 2250 4219 1831 4219 
Q 1534 4219 1204 4116 
Q 875 4013 500 3803 
L 500 4441 
Q 881 4594 1212 4672 
Q 1544 4750 1819 4750 
Q 2544 4750 2975 4387 
Q 3406 4025 3406 3419 
Q 3406 3131 3298 2873 
Q 3191 2616 2906 2266 
Q 2828 2175 2409 1742 
Q 1991 1309 1228 531 
z
" transform="scale(0.015625)"/>
       </defs>
       <use xlink:href="#DejaVuSans-32"/>
       <use xlink:href="#DejaVuSans-30" x="63.623047"/>
       <use xlink:href="#DejaVuSans-30" x="127.246094"/>
      </g>
     </g>
    </g>
   </g>
   <g id="matplotlib.axis_2">
    <g id="ytick_1">
     <g id="line2d_4">
      <defs>
       <path id="mc791256d60" d="M 0 0 
L -3.5 0 
" style="stroke: #000000; stroke-width: 0.8"/>
      </defs>
      <g>
       <use xlink:href="#mc791256d60" x="36" y="184.68" style="stroke: #000000; stroke-width: 0.8"/>
      </g>
     </g>
     <g id="text_4">
      <!-- 0 -->
      <g transform="translate(18.82 190.75875) scale(0.16 -0.16)">
       <use xlink:href="#DejaVuSans-30"/>
      </g>
     </g>
    </g>
    <g id="ytick_2">
     <g id="line2d_5">
      <g>
       <use xlink:href="#mc791256d60" x="36" y="126.093043" style="stroke: #000000; stroke-width: 0.8"/>
      </g>
     </g>
     <g id="text_5">
      <!-- 50 -->
      <g transform="translate(8.64 132.171793) scale(0.16 -0.16)">
       <defs>
        <path id="DejaVuSans-35" d="M 691 4666 
L 3169 4666 
L 3169 4134 
L 1269 4134 
L 1269 2991 
Q 1406 3038 1543 3061 
Q 1681 3084 1819 3084 
Q 2600 3084 3056 2656 
Q 3513 2228 3513 1497 
Q 3513 744 3044 326 
Q 2575 -91 1722 -91 
Q 1428 -91 1123 -41 
Q 819 9 494 109 
L 494 744 
Q 775 591 1075 516 
Q 1375 441 1709 441 
Q 2250 441 2565 725 
Q 2881 1009 2881 1497 
Q 2881 1984 2565 2268 
Q 2250 2553 1709 2553 
Q 1456 2553 1204 2497 
Q 953 2441 691 2322 
L 691 4666 
z
" transform="scale(0.015625)"/>
       </defs>
       <use xlink:href="#DejaVuSans-35"/>
       <use xlink:href="#DejaVuSans-30" x="63.623047"/>
      </g>
     </g>
    </g>
    <g id="ytick_3">
     <g id="line2d_6">
      <g>
       <use xlink:href="#mc791256d60" x="36" y="67.506086" style="stroke: #000000; stroke-width: 0.8"/>
      </g>
     </g>
     <g id="text_6">
      <!-- 100 -->
      <g transform="translate(-1.54 73.584836) scale(0.16 -0.16)">
       <use xlink:href="#DejaVuSans-31"/>
       <use xlink:href="#DejaVuSans-30" x="63.623047"/>
       <use xlink:href="#DejaVuSans-30" x="127.246094"/>
      </g>
     </g>
    </g>
    <g id="text_7">
     <!-- $c_{V}$ (Jmol$^{-1}$K$^{-1}$) -->
     <g transform="translate(-8.9 165.96) rotate(-90) scale(0.16 -0.16)">
      <defs>
       <path id="DejaVuSans-Oblique-63" d="M 3431 3366 
L 3316 2797 
Q 3109 2947 2876 3022 
Q 2644 3097 2394 3097 
Q 2119 3097 1870 3000 
Q 1622 2903 1453 2725 
Q 1184 2453 1037 2087 
Q 891 1722 891 1331 
Q 891 859 1127 628 
Q 1363 397 1844 397 
Q 2081 397 2348 469 
Q 2616 541 2906 684 
L 2797 116 
Q 2547 13 2283 -39 
Q 2019 -91 1741 -91 
Q 1044 -91 669 257 
Q 294 606 294 1253 
Q 294 1797 489 2255 
Q 684 2713 1069 3078 
Q 1331 3328 1684 3456 
Q 2038 3584 2456 3584 
Q 2700 3584 2940 3529 
Q 3181 3475 3431 3366 
z
" transform="scale(0.015625)"/>
       <path id="DejaVuSans-Oblique-56" d="M 1319 0 
L 500 4666 
L 1119 4666 
L 1797 653 
L 4063 4666 
L 4750 4666 
L 2053 0 
L 1319 0 
z
" transform="scale(0.015625)"/>
       <path id="DejaVuSans-20" transform="scale(0.015625)"/>
       <path id="DejaVuSans-28" d="M 1984 4856 
Q 1566 4138 1362 3434 
Q 1159 2731 1159 2009 
Q 1159 1288 1364 580 
Q 1569 -128 1984 -844 
L 1484 -844 
Q 1016 -109 783 600 
Q 550 1309 550 2009 
Q 550 2706 781 3412 
Q 1013 4119 1484 4856 
L 1984 4856 
z
" transform="scale(0.015625)"/>
       <path id="DejaVuSans-4a" d="M 628 4666 
L 1259 4666 
L 1259 325 
Q 1259 -519 939 -900 
Q 619 -1281 -91 -1281 
L -331 -1281 
L -331 -750 
L -134 -750 
Q 284 -750 456 -515 
Q 628 -281 628 325 
L 628 4666 
z
" transform="scale(0.015625)"/>
       <path id="DejaVuSans-6d" d="M 3328 2828 
Q 3544 3216 3844 3400 
Q 4144 3584 4550 3584 
Q 5097 3584 5394 3201 
Q 5691 2819 5691 2113 
L 5691 0 
L 5113 0 
L 5113 2094 
Q 5113 2597 4934 2840 
Q 4756 3084 4391 3084 
Q 3944 3084 3684 2787 
Q 3425 2491 3425 1978 
L 3425 0 
L 2847 0 
L 2847 2094 
Q 2847 2600 2669 2842 
Q 2491 3084 2119 3084 
Q 1678 3084 1418 2786 
Q 1159 2488 1159 1978 
L 1159 0 
L 581 0 
L 581 3500 
L 1159 3500 
L 1159 2956 
Q 1356 3278 1631 3431 
Q 1906 3584 2284 3584 
Q 2666 3584 2933 3390 
Q 3200 3197 3328 2828 
z
" transform="scale(0.015625)"/>
       <path id="DejaVuSans-6f" d="M 1959 3097 
Q 1497 3097 1228 2736 
Q 959 2375 959 1747 
Q 959 1119 1226 758 
Q 1494 397 1959 397 
Q 2419 397 2687 759 
Q 2956 1122 2956 1747 
Q 2956 2369 2687 2733 
Q 2419 3097 1959 3097 
z
M 1959 3584 
Q 2709 3584 3137 3096 
Q 3566 2609 3566 1747 
Q 3566 888 3137 398 
Q 2709 -91 1959 -91 
Q 1206 -91 779 398 
Q 353 888 353 1747 
Q 353 2609 779 3096 
Q 1206 3584 1959 3584 
z
" transform="scale(0.015625)"/>
       <path id="DejaVuSans-6c" d="M 603 4863 
L 1178 4863 
L 1178 0 
L 603 0 
L 603 4863 
z
" transform="scale(0.015625)"/>
       <path id="DejaVuSans-2212" d="M 678 2272 
L 4684 2272 
L 4684 1741 
L 678 1741 
L 678 2272 
z
" transform="scale(0.015625)"/>
       <path id="DejaVuSans-4b" d="M 628 4666 
L 1259 4666 
L 1259 2694 
L 3353 4666 
L 4166 4666 
L 1850 2491 
L 4331 0 
L 3500 0 
L 1259 2247 
L 1259 0 
L 628 0 
L 628 4666 
z
" transform="scale(0.015625)"/>
       <path id="DejaVuSans-29" d="M 513 4856 
L 1013 4856 
Q 1481 4119 1714 3412 
Q 1947 2706 1947 2009 
Q 1947 1309 1714 600 
Q 1481 -109 1013 -844 
L 513 -844 
Q 928 -128 1133 580 
Q 1338 1288 1338 2009 
Q 1338 2731 1133 3434 
Q 928 4138 513 4856 
z
" transform="scale(0.015625)"/>
      </defs>
      <use xlink:href="#DejaVuSans-Oblique-63" transform="translate(0 0.684375)"/>
      <use xlink:href="#DejaVuSans-Oblique-56" transform="translate(54.980469 -15.721875) scale(0.7)"/>
      <use xlink:href="#DejaVuSans-20" transform="translate(105.600586 0.684375)"/>
      <use xlink:href="#DejaVuSans-28" transform="translate(137.387695 0.684375)"/>
      <use xlink:href="#DejaVuSans-4a" transform="translate(176.401367 0.684375)"/>
      <use xlink:href="#DejaVuSans-6d" transform="translate(205.893555 0.684375)"/>
      <use xlink:href="#DejaVuSans-6f" transform="translate(303.305664 0.684375)"/>
      <use xlink:href="#DejaVuSans-6c" transform="translate(364.487305 0.684375)"/>
      <use xlink:href="#DejaVuSans-2212" transform="translate(393.227539 38.965625) scale(0.7)"/>
      <use xlink:href="#DejaVuSans-31" transform="translate(451.879883 38.965625) scale(0.7)"/>
      <use xlink:href="#DejaVuSans-4b" transform="translate(499.150391 0.684375)"/>
      <use xlink:href="#DejaVuSans-2212" transform="translate(565.683594 38.965625) scale(0.7)"/>
      <use xlink:href="#DejaVuSans-31" transform="translate(624.335938 38.965625) scale(0.7)"/>
      <use xlink:href="#DejaVuSans-29" transform="translate(671.606445 0.684375)"/>
     </g>
    </g>
   </g>
   <g id="line2d_7">
    <path d="M 49.315911 184.244762 
L 52.388813 183.565792 
L 55.461715 182.573452 
L 58.534617 181.267868 
L 61.607519 179.650835 
L 64.680421 177.731688 
L 67.753323 175.535736 
L 71.850526 172.257199 
L 76.97203 167.802477 
L 88.239337 157.856285 
L 94.385141 152.793032 
L 100.530945 148.030615 
L 109.749652 141.217431 
L 119.992659 133.613431 
L 126.138463 128.80666 
L 131.259966 124.568757 
L 136.38147 120.058503 
L 141.502973 115.20904 
L 145.600176 111.023316 
L 149.697379 106.483212 
L 152.770281 102.764481 
L 155.843183 98.653926 
L 157.891784 95.582614 
L 159.940385 92.068851 
L 160.964686 90.03793 
L 161.988987 87.693298 
L 163.013288 84.785801 
L 164.268056 79.098845 
L 164.728991 74.575339 
L 164.959459 68.844268 
L 165.061889 59.828134 
L 165.164319 78.411073 
L 165.394787 83.756585 
L 165.855722 87.520658 
L 166.08619 88.567434 
L 167.11049 91.178638 
L 168.134791 92.45801 
L 169.159092 93.195086 
L 170.183392 93.637067 
L 171.207693 93.893988 
L 173.256294 94.063657 
L 175.304896 93.950926 
L 178.377798 93.477879 
L 182.475001 92.52787 
L 187.596504 91.075741 
L 196.81521 88.164323 
L 216.276923 81.955448 
L 227.544231 78.621748 
L 237.787238 75.814661 
L 248.030245 73.225513 
L 249.054545 72.978382 
L 249.054545 72.978382 
" clip-path="url(#pe7365166eb)" style="fill: none; stroke: #1f77b4; stroke-width: 1.5; stroke-linecap: square"/>
   </g>
   <g id="line2d_8">
    <path d="M 49.315911 184.244762 
L 52.388813 183.565792 
L 55.461715 182.573452 
L 58.534617 181.267868 
L 61.607519 179.650835 
L 64.680421 177.731688 
L 67.753323 175.535742 
L 71.850526 172.257293 
L 76.97203 167.803492 
L 88.239337 157.882422 
L 93.360841 153.684402 
L 98.482344 149.747071 
L 104.628148 145.326038 
L 111.798253 140.479194 
L 121.016959 134.546427 
L 133.308568 126.908631 
L 145.600176 119.502526 
L 155.843183 113.56156 
L 165.625254 108.149975 
L 174.280595 103.61508 
L 182.475001 99.561892 
L 190.669406 95.751911 
L 198.863812 92.186924 
L 207.058217 88.862924 
L 215.252623 85.771743 
L 223.447028 82.902439 
L 232.665734 79.923951 
L 241.884441 77.191149 
L 249.054545 75.223054 
L 249.054545 75.223054 
" clip-path="url(#pe7365166eb)" style="fill: none; stroke: #ff7f0e; stroke-width: 1.5; stroke-linecap: square"/>
   </g>
   <g id="line2d_9">
    <path d="M 49.315911 184.68 
L 95.409442 184.581374 
L 104.628148 184.328463 
L 111.798253 183.918316 
L 117.944057 183.346223 
L 123.065561 182.666165 
L 128.187064 181.757405 
L 132.284267 180.833893 
L 136.38147 179.704407 
L 140.478672 178.332628 
L 144.575875 176.669726 
L 147.648777 175.189217 
L 150.721679 173.457562 
L 153.794581 171.396762 
L 155.843183 169.772366 
L 157.891784 167.857494 
L 159.940385 165.48835 
L 160.964686 164.025154 
L 161.988987 162.245115 
L 163.013288 159.899023 
L 164.037588 156.193216 
L 164.498524 153.185928 
L 164.728991 150.621632 
L 164.959459 145.015193 
L 165.061889 136.054397 
L 165.164319 154.692642 
L 165.394787 160.162467 
L 165.855722 164.174657 
L 166.08619 165.345235 
L 167.11049 168.504592 
L 168.134791 170.32869 
L 169.159092 171.607023 
L 170.183392 172.586755 
L 172.231994 174.039038 
L 174.280595 175.098909 
L 176.329197 175.926119 
L 179.402099 176.893063 
L 183.499301 177.862712 
L 188.620805 178.763557 
L 194.766609 179.567369 
L 201.936714 180.268926 
L 211.15542 180.938595 
L 223.447028 181.582772 
L 238.811539 182.150002 
L 249.054545 182.435328 
L 249.054545 182.435328 
" clip-path="url(#pe7365166eb)" style="fill: none; stroke: #2ca02c; stroke-width: 1.5; stroke-linecap: square"/>
   </g>
   <g id="patch_3">
    <path d="M 36 192.24 
L 36 25.92 
" style="fill: none; stroke: #000000; stroke-width: 0.8; stroke-linejoin: miter; stroke-linecap: square"/>
   </g>
   <g id="patch_4">
    <path d="M 259.2 192.24 
L 259.2 25.92 
" style="fill: none; stroke: #000000; stroke-width: 0.8; stroke-linejoin: miter; stroke-linecap: square"/>
   </g>
   <g id="patch_5">
    <path d="M 36 192.24 
L 259.2 192.24 
" style="fill: none; stroke: #000000; stroke-width: 0.8; stroke-linejoin: miter; stroke-linecap: square"/>
   </g>
   <g id="patch_6">
    <path d="M 36 25.92 
L 259.2 25.92 
" style="fill: none; stroke: #000000; stroke-width: 0.8; stroke-linejoin: miter; stroke-linecap: square"/>
   </g>
  </g>
 </g>
 <defs>
  <clipPath id="pe7365166eb">
   <rect x="36" y="25.92" width="223.2" height="166.32"/>
  </clipPath>
 </defs>
</svg>
